<mxfile host="Electron" modified="2024-04-09T09:07:52.777Z" agent="Mozilla/5.0 (Windows NT 10.0; Win64; x64) AppleWebKit/537.36 (KHTML, like Gecko) draw.io/24.1.0 Chrome/120.0.6099.109 Electron/28.1.0 Safari/537.36" version="24.1.0" etag="CVUoUPeZvgmdrieIMkYH" type="device">
  <diagram name="Page-1" id="fu2fMV-L6i4KWlRdfJtE">
    <mxGraphModel dx="988" dy="570" grid="1" gridSize="10" guides="1" tooltips="1" connect="1" arrows="1" fold="1" page="1" pageScale="1" pageWidth="827" pageHeight="1169" background="#ffffff" math="0" shadow="0">
      <root>
        <mxCell id="0" />
        <mxCell id="1" parent="0" />
        <mxCell id="mlouHhY-SC-koA-eOmkY-3" value="Décomposition du texte en&lt;div&gt;&amp;nbsp;mot dans un tableau (words)&lt;/div&gt;" style="rounded=0;whiteSpace=wrap;html=1;fillColor=#dae8fc;strokeColor=#6c8ebf;labelBackgroundColor=none;fontColor=#000000;" parent="1" vertex="1">
          <mxGeometry x="322" y="190" width="168" height="60" as="geometry" />
        </mxCell>
        <mxCell id="mlouHhY-SC-koA-eOmkY-5" value="Transformation du tableau de&lt;div&gt;mot en son équivalent&lt;/div&gt;&lt;div&gt;RegExp (reList)&lt;/div&gt;" style="rounded=0;whiteSpace=wrap;html=1;fillColor=#dae8fc;strokeColor=#6c8ebf;labelBackgroundColor=none;fontColor=#000000;" parent="1" vertex="1">
          <mxGeometry x="322" y="270" width="168" height="60" as="geometry" />
        </mxCell>
        <mxCell id="mlouHhY-SC-koA-eOmkY-70" value="Fin" style="edgeStyle=orthogonalEdgeStyle;rounded=0;orthogonalLoop=1;jettySize=auto;html=1;exitX=1;exitY=0.25;exitDx=0;exitDy=0;entryX=0.5;entryY=0;entryDx=0;entryDy=0;spacingBottom=13;labelBackgroundColor=none;fontColor=#000000;strokeColor=#000000;" parent="1" source="mlouHhY-SC-koA-eOmkY-6" target="mlouHhY-SC-koA-eOmkY-52" edge="1">
          <mxGeometry x="-0.9664" y="5" relative="1" as="geometry">
            <Array as="points">
              <mxPoint x="760" y="385" />
              <mxPoint x="760" y="920" />
              <mxPoint x="406" y="920" />
            </Array>
            <mxPoint as="offset" />
          </mxGeometry>
        </mxCell>
        <mxCell id="mlouHhY-SC-koA-eOmkY-6" value="Parcourir chaque Recette (recipe) avec recipes.forEach" style="rounded=0;whiteSpace=wrap;html=1;fillColor=#d5e8d4;strokeColor=#82b366;labelBackgroundColor=none;fontColor=#000000;" parent="1" vertex="1">
          <mxGeometry x="322" y="370" width="168" height="60" as="geometry" />
        </mxCell>
        <mxCell id="mlouHhY-SC-koA-eOmkY-47" value="Oui" style="edgeStyle=orthogonalEdgeStyle;rounded=0;orthogonalLoop=1;jettySize=auto;html=1;exitX=0;exitY=0.5;exitDx=0;exitDy=0;entryX=1;entryY=0.5;entryDx=0;entryDy=0;labelBackgroundColor=none;fontColor=#000000;strokeColor=#000000;" parent="1" source="mlouHhY-SC-koA-eOmkY-7" target="mlouHhY-SC-koA-eOmkY-62" edge="1">
          <mxGeometry x="-0.68" y="-10" relative="1" as="geometry">
            <mxPoint x="246" y="510" as="targetPoint" />
            <mxPoint as="offset" />
          </mxGeometry>
        </mxCell>
        <mxCell id="mlouHhY-SC-koA-eOmkY-55" value="" style="edgeStyle=orthogonalEdgeStyle;rounded=0;orthogonalLoop=1;jettySize=auto;html=1;labelBackgroundColor=none;fontColor=#000000;" parent="1" source="mlouHhY-SC-koA-eOmkY-7" target="mlouHhY-SC-koA-eOmkY-10" edge="1">
          <mxGeometry relative="1" as="geometry" />
        </mxCell>
        <mxCell id="mlouHhY-SC-koA-eOmkY-7" value="reList.length = 0 ?" style="rhombus;whiteSpace=wrap;html=1;fillColor=#fff2cc;strokeColor=#d6b656;labelBackgroundColor=none;fontColor=#000000;" parent="1" vertex="1">
          <mxGeometry x="346" y="450" width="120" height="120" as="geometry" />
        </mxCell>
        <mxCell id="mlouHhY-SC-koA-eOmkY-42" value="Fin" style="edgeStyle=orthogonalEdgeStyle;rounded=0;orthogonalLoop=1;jettySize=auto;html=1;exitX=1;exitY=0.5;exitDx=0;exitDy=0;entryX=0;entryY=0.5;entryDx=0;entryDy=0;labelBackgroundColor=none;fontColor=#000000;strokeColor=#000000;" parent="1" source="mlouHhY-SC-koA-eOmkY-10" target="mlouHhY-SC-koA-eOmkY-64" edge="1">
          <mxGeometry x="-0.0345" y="10" relative="1" as="geometry">
            <mxPoint x="540" y="650" as="targetPoint" />
            <mxPoint as="offset" />
          </mxGeometry>
        </mxCell>
        <mxCell id="mlouHhY-SC-koA-eOmkY-10" value="Parcourir chaque expression RegExp (re) avec reList.some" style="rounded=0;whiteSpace=wrap;html=1;fillColor=#d5e8d4;strokeColor=#82b366;labelBackgroundColor=none;fontColor=#000000;" parent="1" vertex="1">
          <mxGeometry x="320" y="620" width="172" height="60" as="geometry" />
        </mxCell>
        <mxCell id="mlouHhY-SC-koA-eOmkY-60" value="Non" style="edgeStyle=orthogonalEdgeStyle;rounded=0;orthogonalLoop=1;jettySize=auto;html=1;exitX=0;exitY=0.5;exitDx=0;exitDy=0;entryX=0;entryY=0.5;entryDx=0;entryDy=0;labelBackgroundColor=none;fontColor=#000000;strokeColor=#000000;" parent="1" source="mlouHhY-SC-koA-eOmkY-11" target="mlouHhY-SC-koA-eOmkY-10" edge="1">
          <mxGeometry x="-0.8919" y="-10" relative="1" as="geometry">
            <Array as="points">
              <mxPoint x="240" y="780" />
              <mxPoint x="240" y="650" />
            </Array>
            <mxPoint as="offset" />
          </mxGeometry>
        </mxCell>
        <mxCell id="mlouHhY-SC-koA-eOmkY-61" value="Oui" style="edgeStyle=orthogonalEdgeStyle;rounded=0;orthogonalLoop=1;jettySize=auto;html=1;exitX=0.5;exitY=1;exitDx=0;exitDy=0;entryX=0.46;entryY=1.044;entryDx=0;entryDy=0;entryPerimeter=0;labelBackgroundColor=none;fontColor=#000000;strokeColor=#000000;" parent="1" source="mlouHhY-SC-koA-eOmkY-11" target="mlouHhY-SC-koA-eOmkY-62" edge="1">
          <mxGeometry x="-0.851" y="-10" relative="1" as="geometry">
            <mxPoint x="130" y="580" as="targetPoint" />
            <mxPoint as="offset" />
          </mxGeometry>
        </mxCell>
        <mxCell id="mlouHhY-SC-koA-eOmkY-11" value="re valide pour &lt;br&gt;name,&amp;nbsp;&lt;span style=&quot;&quot;&gt;description ou au moins pour l&#39;un des ingrédients&amp;nbsp;&lt;/span&gt;&lt;span style=&quot;&quot;&gt;?&lt;/span&gt;" style="rhombus;whiteSpace=wrap;html=1;fillColor=#fff2cc;strokeColor=#d6b656;labelBackgroundColor=none;fontColor=#000000;" parent="1" vertex="1">
          <mxGeometry x="326" y="700" width="160" height="160" as="geometry" />
        </mxCell>
        <mxCell id="mlouHhY-SC-koA-eOmkY-17" value="" style="endArrow=classic;html=1;rounded=0;entryX=0.5;entryY=0;entryDx=0;entryDy=0;exitX=0.5;exitY=1;exitDx=0;exitDy=0;labelBackgroundColor=none;fontColor=#000000;" parent="1" source="mlouHhY-SC-koA-eOmkY-10" target="mlouHhY-SC-koA-eOmkY-11" edge="1">
          <mxGeometry width="50" height="50" relative="1" as="geometry">
            <mxPoint x="322" y="710" as="sourcePoint" />
            <mxPoint x="372" y="660" as="targetPoint" />
          </mxGeometry>
        </mxCell>
        <mxCell id="mlouHhY-SC-koA-eOmkY-18" value="Non" style="endArrow=classic;html=1;rounded=0;entryX=0.5;entryY=0;entryDx=0;entryDy=0;exitX=0.5;exitY=1;exitDx=0;exitDy=0;labelBackgroundColor=none;fontColor=#000000;strokeColor=#000000;" parent="1" source="mlouHhY-SC-koA-eOmkY-7" target="mlouHhY-SC-koA-eOmkY-10" edge="1">
          <mxGeometry x="-0.6" y="24" width="50" height="50" relative="1" as="geometry">
            <mxPoint x="322" y="680" as="sourcePoint" />
            <mxPoint x="372" y="630" as="targetPoint" />
            <mxPoint as="offset" />
          </mxGeometry>
        </mxCell>
        <mxCell id="mlouHhY-SC-koA-eOmkY-50" style="edgeStyle=orthogonalEdgeStyle;rounded=0;orthogonalLoop=1;jettySize=auto;html=1;exitX=0.518;exitY=-0.025;exitDx=0;exitDy=0;entryX=1;entryY=0.75;entryDx=0;entryDy=0;exitPerimeter=0;labelBackgroundColor=none;fontColor=#000000;strokeColor=#000000;" parent="1" source="mlouHhY-SC-koA-eOmkY-64" target="mlouHhY-SC-koA-eOmkY-6" edge="1">
          <mxGeometry relative="1" as="geometry">
            <mxPoint x="628" y="630" as="sourcePoint" />
          </mxGeometry>
        </mxCell>
        <mxCell id="mlouHhY-SC-koA-eOmkY-23" value="" style="endArrow=classic;html=1;rounded=0;exitX=0.5;exitY=1;exitDx=0;exitDy=0;labelBackgroundColor=none;fontColor=#000000;strokeColor=#000000;" parent="1" source="mlouHhY-SC-koA-eOmkY-66" edge="1">
          <mxGeometry width="50" height="50" relative="1" as="geometry">
            <mxPoint x="406" y="170" as="sourcePoint" />
            <mxPoint x="406" y="190" as="targetPoint" />
          </mxGeometry>
        </mxCell>
        <mxCell id="mlouHhY-SC-koA-eOmkY-24" value="" style="endArrow=classic;html=1;rounded=0;entryX=0.5;entryY=0;entryDx=0;entryDy=0;exitX=0.5;exitY=1;exitDx=0;exitDy=0;labelBackgroundColor=none;fontColor=#000000;strokeColor=#000000;" parent="1" source="mlouHhY-SC-koA-eOmkY-3" target="mlouHhY-SC-koA-eOmkY-5" edge="1">
          <mxGeometry width="50" height="50" relative="1" as="geometry">
            <mxPoint x="222" y="330" as="sourcePoint" />
            <mxPoint x="272" y="280" as="targetPoint" />
          </mxGeometry>
        </mxCell>
        <mxCell id="mlouHhY-SC-koA-eOmkY-25" value="" style="endArrow=classic;html=1;rounded=0;entryX=0.5;entryY=0;entryDx=0;entryDy=0;exitX=0.5;exitY=1;exitDx=0;exitDy=0;labelBackgroundColor=none;fontColor=#000000;strokeColor=#000000;" parent="1" source="mlouHhY-SC-koA-eOmkY-5" target="mlouHhY-SC-koA-eOmkY-6" edge="1">
          <mxGeometry width="50" height="50" relative="1" as="geometry">
            <mxPoint x="222" y="370" as="sourcePoint" />
            <mxPoint x="272" y="320" as="targetPoint" />
          </mxGeometry>
        </mxCell>
        <mxCell id="mlouHhY-SC-koA-eOmkY-26" value="" style="endArrow=classic;html=1;rounded=0;entryX=0.5;entryY=0;entryDx=0;entryDy=0;exitX=0.5;exitY=1;exitDx=0;exitDy=0;labelBackgroundColor=none;fontColor=#000000;strokeColor=#000000;" parent="1" source="mlouHhY-SC-koA-eOmkY-6" target="mlouHhY-SC-koA-eOmkY-7" edge="1">
          <mxGeometry width="50" height="50" relative="1" as="geometry">
            <mxPoint x="222" y="390" as="sourcePoint" />
            <mxPoint x="272" y="340" as="targetPoint" />
          </mxGeometry>
        </mxCell>
        <mxCell id="mlouHhY-SC-koA-eOmkY-52" value="Fin de l&#39;algorithme" style="rounded=1;whiteSpace=wrap;html=1;labelBackgroundColor=none;fontColor=#FFFFFF;fillColor=#000000;" parent="1" vertex="1">
          <mxGeometry x="332" y="960" width="148" height="50" as="geometry" />
        </mxCell>
        <mxCell id="mlouHhY-SC-koA-eOmkY-63" style="edgeStyle=orthogonalEdgeStyle;rounded=0;orthogonalLoop=1;jettySize=auto;html=1;exitX=0.5;exitY=0;exitDx=0;exitDy=0;entryX=0;entryY=0.5;entryDx=0;entryDy=0;labelBackgroundColor=none;fontColor=#000000;strokeColor=#000000;" parent="1" source="mlouHhY-SC-koA-eOmkY-62" target="mlouHhY-SC-koA-eOmkY-6" edge="1">
          <mxGeometry relative="1" as="geometry" />
        </mxCell>
        <mxCell id="mlouHhY-SC-koA-eOmkY-62" value="recipe.showBySearch = true" style="shape=parallelogram;perimeter=parallelogramPerimeter;whiteSpace=wrap;html=1;fixedSize=1;fillColor=#e1d5e7;strokeColor=#9673a6;labelBackgroundColor=none;fontColor=#000000;" parent="1" vertex="1">
          <mxGeometry x="90" y="490" width="190" height="40" as="geometry" />
        </mxCell>
        <mxCell id="mlouHhY-SC-koA-eOmkY-64" value="recipe.showBySearch = false" style="shape=parallelogram;perimeter=parallelogramPerimeter;whiteSpace=wrap;html=1;fixedSize=1;fillColor=#e1d5e7;strokeColor=#9673a6;labelBackgroundColor=none;fontColor=#000000;" parent="1" vertex="1">
          <mxGeometry x="540" y="630" width="190" height="40" as="geometry" />
        </mxCell>
        <mxCell id="mlouHhY-SC-koA-eOmkY-69" style="edgeStyle=orthogonalEdgeStyle;rounded=0;orthogonalLoop=1;jettySize=auto;html=1;exitX=0.5;exitY=1;exitDx=0;exitDy=0;entryX=0.5;entryY=0;entryDx=0;entryDy=0;labelBackgroundColor=none;fontColor=#000000;strokeColor=#000000;" parent="1" source="mlouHhY-SC-koA-eOmkY-65" target="mlouHhY-SC-koA-eOmkY-66" edge="1">
          <mxGeometry relative="1" as="geometry" />
        </mxCell>
        <mxCell id="mlouHhY-SC-koA-eOmkY-65" value="Début" style="rounded=1;whiteSpace=wrap;html=1;labelBackgroundColor=none;fontColor=#FFFFFF;fillColor=#000000;" parent="1" vertex="1">
          <mxGeometry x="352" y="60" width="108" height="50" as="geometry" />
        </mxCell>
        <mxCell id="mlouHhY-SC-koA-eOmkY-66" value="Texte saisie par l&#39;utilisateur" style="shape=parallelogram;perimeter=parallelogramPerimeter;whiteSpace=wrap;html=1;fixedSize=1;fillColor=#e1d5e7;strokeColor=#9673a6;labelBackgroundColor=none;fontColor=#000000;" parent="1" vertex="1">
          <mxGeometry x="310" y="130" width="192" height="40" as="geometry" />
        </mxCell>
      </root>
    </mxGraphModel>
  </diagram>
</mxfile>
